<svg height="444pt" viewBox="-38 0 444 444" width="444pt" xmlns="http://www.w3.org/2000/svg"><path d="m324 444c-6.800781 0-12-5.199219-12-12v-206c0-24.398438 6-48.398438 17.601562-69.601562 9.597657-18 14.398438-38 14.398438-58.398438v-86c0-6.800781 5.199219-12 12-12s12 5.199219 12 12v86c0 24.398438-6 48.398438-17.601562 69.601562-9.597657 18-14.398438 38-14.398438 58.398438v206c0 6.800781-5.199219 12-12 12zm0 0" fill="#444b54"/><path d="m288 108h40v-96h-40c-6.800781 0-12 5.199219-12 12v72c0 6.800781 5.199219 12 12 12zm0 0" fill="#ff5576"/><path d="m52 360h120l40-308v-40h-200v40zm0 0" fill="#adf9d2"/><path d="m186.800781 220 12-80h-119.601562c-7.199219 0-12.800781 6.398438-12 13.601562l8.402343 56c.796876 6 6 10.398438 12 10.398438zm0 0" fill="#fff"/><path d="m12 12h200v40h-200zm0 0" fill="#fff"/><g fill="#444b54"><path d="m172 360c-.398438 0-1.199219 0-1.601562 0-6.398438-.800781-11.199219-6.800781-10.398438-13.601562l40-295.199219v-27.199219h-176v27.199219l40 295.199219c.800781 6.402343-3.601562 12.800781-10.398438 13.601562-6.402343.800781-12.800781-3.601562-13.601562-10.398438l-40-296c0-.402343 0-1.203124 0-1.601562v-40c0-6.800781 5.199219-12 12-12h200c6.800781 0 12 5.199219 12 12v40 1.601562l-40 296c-.800781 6-6 10.398438-12 10.398438zm0 0"/><path d="m172 380h-120c-6.800781 0-12 5.199219-12 12v40c0 6.800781 5.199219 12 12 12h120c6.800781 0 12-5.199219 12-12v-40c0-6.398438-5.199219-12-12-12zm0 0"/></g></svg>
